inDegrees=no
num_controls=7
num_derivatives=13
num_iterations=68
num_multipliers=7
num_parameters=0
num_slacks=7
num_states=26
objective=0.465353
objective_accelerations=0.068957
objective_balance=0.003903
objective_effort=0.053914
objective_height=0.332162
objective_ligament=0.006417
solver_duration=998.709304
status=Solve_Succeeded
success=true
DataType=double
version=3
OpenSimVersion=4.5
endheader
time	/jointset/ground_pelvis/pelvis_tilt/value	/jointset/ground_pelvis/pelvis_tx/value	/jointset/ground_pelvis/pelvis_ty/value	/jointset/hip_l/hip_flexion_l/value	/jointset/hip_l/hip_adduction_l/value	/jointset/hip_l/hip_rotation_l/value	/jointset/back/lumbar_extension/value	/jointset/patellofemoral_l/patellar_flexion_l/value	/jointset/knee_l/knee_flexion_l/value	/jointset/knee_l/knee_adduction_l/value	/jointset/knee_l/knee_rotation_l/value	/jointset/ankle_l/ankle_angle_l/value	/jointset/subtalar_l/subtalar_angle_l/value	/jointset/ground_pelvis/pelvis_tilt/speed	/jointset/ground_pelvis/pelvis_tx/speed	/jointset/ground_pelvis/pelvis_ty/speed	/jointset/hip_l/hip_flexion_l/speed	/jointset/hip_l/hip_adduction_l/speed	/jointset/hip_l/hip_rotation_l/speed	/jointset/back/lumbar_extension/speed	/jointset/patellofemoral_l/patellar_flexion_l/speed	/jointset/knee_l/knee_flexion_l/speed	/jointset/knee_l/knee_adduction_l/speed	/jointset/knee_l/knee_rotation_l/speed	/jointset/ankle_l/ankle_angle_l/speed	/jointset/subtalar_l/subtalar_angle_l/speed	/forceset/tau_hip_flexion_l	/forceset/tau_hip_adduction_l	/forceset/tau_hip_rotation_l	/forceset/tau_knee_flexion_l	/forceset/tau_ankle_angle_l	/forceset/tau_subtalar_angle_l	/forceset/tau_lumbar_extension	lambda_cid13_p0	lambda_cid13_p1	lambda_cid13_p2	lambda_cid13_p3	lambda_cid13_p4	lambda_cid13_p5	lambda_cid14_p0	/jointset/ground_pelvis/pelvis_tilt/accel	/jointset/ground_pelvis/pelvis_tx/accel	/jointset/ground_pelvis/pelvis_ty/accel	/jointset/hip_l/hip_flexion_l/accel	/jointset/hip_l/hip_adduction_l/accel	/jointset/hip_l/hip_rotation_l/accel	/jointset/back/lumbar_extension/accel	/jointset/patellofemoral_l/patellar_flexion_l/accel	/jointset/knee_l/knee_flexion_l/accel	/jointset/knee_l/knee_adduction_l/accel	/jointset/knee_l/knee_rotation_l/accel	/jointset/ankle_l/ankle_angle_l/accel	/jointset/subtalar_l/subtalar_angle_l/accel	gamma_cid13_p0	gamma_cid13_p1	gamma_cid13_p2	gamma_cid13_p3	gamma_cid13_p4	gamma_cid13_p5	gamma_cid14_p0
1	-0.1612878508483088	-0.06897353497802561	0.4962642328539866	1.898953301824126	-0.2991935282736276	0.1459750971972776	-0.9599294245815945	1.899115567419221	1.899115567419221	0.07738576945790604	-0.1745275208560441	0.2971528769565092	0.111301303231599	0.06228131192567109	0.01224421077245181	0.08451099745566841	-0.3107659573062811	-0.02182742508498193	-0.06559422285866628	3.53528463023663e-05	-0.1662955585779696	-0.1662955585779687	-0.01236857383374746	4.971410304761735e-05	0.07423494864175971	0.00858340298482385	-0.4397733526003305	-0.007717006703621145	-0.01606403179582384	-0.4479957648499162	0.06411620733325675	-0.005683334518680814	0.47251141107565	-37.4402624458092	16.33784207360068	-11.41341194446416	22.37095830657346	-862.1925579439595	-48.58294511452893	-0.0330631536200711	0.14145061744704	-0.3535554193650631	2.657151135013051	-7.702315305722967	-0.4780202480893019	-1.983754898133564	-0.009304839640234657	-7.072857895882003	-7.072857895881972	-1.121964854053976	-0.03398278149787484	-0.003539947400605039	-0.6251431253277775	1.167273388017104e-08	-1.03733433427682e-11	-1.648765297659804e-07	-5.993518674021909e-08	-4.116940857603831e-08	-1.539963411643995e-08	4.330613062840941e-09
1.01	-0.1606581142068642	-0.06886868460594593	0.4972420372237566	1.895461290334551	-0.2994345118617758	0.145222029437053	-0.9599292606068394	1.897099180768252	1.897099180768258	0.07720494574434225	-0.1745272632900954	0.2978946010357513	0.1113572348670238	0.06367818211137309	0.00873842438009482	0.1110349147506696	-0.38756517000693	-0.02634132700371536	-0.08500185944298012	1.795693012540009e-06	-0.2369761199931324	-0.2369761199931315	-0.02379081608109111	6.117522968717923e-06	0.0740306110742527	0.002598713824168541	-0.4389355308455985	-0.00728506296717274	-0.01600869356055994	-0.4485382751234466	0.06424271773196194	-0.005494519238080538	0.4720634798097363	-37.35390345970976	16.24792536022348	-11.40730884670938	22.16507701512179	-861.7692225384117	-48.67250477060052	-0.03316485136761652	0.1406254010238461	-0.347220471134168	2.647756837473882	-7.658053102709109	-0.4338422865982277	-1.916652307360425	0.0002718881477352074	-7.064809051359903	-7.064809051359949	-1.15154674261518	0.01105441366603005	-0.04077161122188909	-0.58573299032014	1.090427509384515e-08	-3.000831402939783e-08	-2.132702453969398e-07	-7.154485453335147e-08	-5.45009238288467e-08	-8.147768916087842e-08	7.618786461270165e-09
1.02	-0.1600140448271808	-0.06879851814218263	0.4984846297286224	1.891203420947882	-0.2997197878936759	0.1442754084572304	-0.9599293015955498	1.894376157745727	1.894376157745729	0.07691006104180055	-0.1745273211879547	0.2986319035493596	0.1113531993750648	0.06514785957275657	0.005307429109177799	0.1374686244748748	-0.4639375367265147	-0.03068591383576397	-0.1043048667785	-5.639807441604895e-06	-0.3076228328893544	-0.3076228328893534	-0.03518077163005894	-1.337865995267496e-05	0.07335063551490122	-0.003410022491915441	-0.4380977090908468	-0.006853119230722953	-0.01595335532528667	-0.4490807853969764	0.06436922813066283	-0.005305703957480605	0.4716155485438416	-37.26539121040248	16.15788631956648	-11.40147632690819	21.97623974974735	-861.3243616690412	-48.71522686403144	-0.03329499853016476	0.1560120725833511	-0.3385971950770797	2.639109620853863	-7.616946109510128	-0.4441572307523419	-1.962829048374774	-0.0040805090730557	-7.066088192093855	-7.066088192093799	-1.115507514378809	-0.0291627020663798	-0.09866754576951932	-0.6299525564135274	8.92358325978395e-09	-5.770946636759013e-08	-2.596751160879355e-07	-8.128817099839825e-08	-6.731635146122338e-08	-1.248327938554499e-07	8.846070054192903e-09
1.03	-0.1593540954421284	-0.06876208583687361	0.49999113841415	1.886183273826442	-0.3000476769995575	0.1431362718515585	-0.9599294362795321	1.89094711620022	1.890947116200221	0.07650158588757508	-0.1745275291435918	0.2993602199465639	0.1112890387942491	0.06693621174224687	0.002011570015959487	0.1638216718166562	-0.5400930155254282	-0.03486406582028752	-0.12349888764749	-3.274792448509124e-05	-0.378153257948202	-0.3781532579482011	-0.0465008763227306	-3.057366274325611e-05	0.07225418955316966	-0.009415754909633719	-0.4379111349868789	-0.006421619452765363	-0.01584691439809456	-0.4492800669581046	0.06440620550398228	-0.004988149990974063	0.4718471173131144	-37.19630078264694	15.996865477751	-11.36322963752373	21.50049425630578	-861.1130714077296	-48.8125839212254	-0.03344131363102504	0.2043700447830554	-0.3202178184149537	2.63167006579458	-7.615023749475252	-0.4004152743950255	-1.894164181038395	-0.003743605537339182	-7.041688940993827	-7.04168894099389	-1.138252284600719	0.01158071422161974	-0.1239078695529334	-0.5848821735866617	6.93052170074585e-09	-8.53871820899879e-08	-3.060596924428092e-07	-9.101244306213802e-08	-8.012651289339159e-08	-1.679560317097166e-07	1.005232415930434e-08
1.04	-0.1586734378842493	-0.06875763963289108	0.5017608311280861	1.880401536920135	-0.300416501843702	0.1418058999222229	-0.9599301855731784	1.886813736548481	1.88681373654848	0.07598031161884881	-0.1745279933265269	0.3000758169345156	0.1111650211714291	0.06928949413778492	-0.00108979115611886	0.1901054301566081	-0.6162554937000767	-0.03887306148851799	-0.1425519315115718	-0.0001285617422334196	-0.4484904541355941	-0.4484904541355931	-0.05774059453097657	-6.462412125240406e-05	0.07080675366432056	-0.01538143089277853	-0.4377245608829095	-0.005990119674807733	-0.01574047347089596	-0.4494793485192318	0.06444318287730218	-0.004670596024467315	0.4720786860823893	-37.12579677352967	15.8354708260973	-11.32477825579056	21.0450150471601	-860.8889312367072	-48.86679931482842	-0.03361350061270312	0.26899811779293	-0.2996976108491036	2.625251820487957	-7.618345984657103	-0.4103259674937151	-1.934633647393151	-0.0178216492147532	-7.027442417802735	-7.02744241780269	-1.099430217493659	-0.03253379321007547	-0.1688655311930649	-0.6219412694988352	7.992105891328623e-09	-1.11889949408007e-07	-3.3990126017358e-07	-1.068542877966703e-07	-9.070775783431309e-08	-2.060138145015854e-07	1.048019147251921e-08
1.05	-0.1579671242502668	-0.06878314968775705	0.5037928162483294	1.873859389149055	-0.3008244503529629	0.1402856618212404	-0.9599309980418945	1.881978047238641	1.881978047238638	0.07534723089945393	-0.1745288119449774	0.3007747396835316	0.110981495830579	0.0719963833032099	-0.003971476362908147	0.216260727071298	-0.6920533483149484	-0.04267459897437591	-0.1614642030984568	7.861007832650507e-05	-0.5186065779534406	-0.51860657795344	-0.06885415186263755	-9.294884315727491e-05	0.06887734023421457	-0.02131848328576129	-0.4376258829417438	-0.005372197154538962	-0.01558245058433673	-0.4495756076047434	0.06467398177001482	-0.004352965686874028	0.4725948547194487	-36.98281585035015	15.66071538316738	-11.28346952888206	20.3924832326026	-860.6422493434543	-48.88081004259316	-0.03381918075620619	0.274999714430094	-0.2763171969377833	2.606018253792199	-7.542405285776222	-0.3586990301485243	-1.864816377957729	0.05686790895807826	-6.997575062787599	-6.997575062787686	-1.114109032875034	0.01285708730677103	-0.2200566824772912	-0.5787469946004387	9.14914776158703e-09	-1.383559995883894e-07	-3.733508588848476e-07	-1.228873066771649e-07	-1.012193491348832e-07	-2.439133018227544e-07	1.088373419848731e-08
1.06	-0.1572330486449287	-0.06883625923895979	0.5060854242630859	1.866562882814645	-0.3012691405152865	0.1385772425116681	-0.9599263625301573	1.876442421150821	1.876442421150821	0.07460365649836792	-0.174529746030845	0.3014513528115348	0.1107387680117184	0.07484188840914979	-0.006609690423478799	0.2422300090592965	-0.7671272063647832	-0.04622139210090231	-0.1801881732302042	0.0009610343495541019	-0.5884778097317667	-0.5884778097317667	-0.07983933086920657	-8.77176055625186e-05	0.06634482946179192	-0.02722192649484089	-0.4375272050005967	-0.004754274634269191	-0.01542442769778419	-0.4496718666902537	0.06490478066273361	-0.00403533534927618	0.4731110233564915	-36.83938936316323	15.48541778294489	-11.24154335173944	19.76407822184852	-860.3940249031657	-48.85608570734495	-0.03404699622166686	0.2967213058959515	-0.2510033816053971	2.588048835149681	-7.473546671649742	-0.3593770956273877	-1.896973356365623	0.1172288409185278	-6.978464009898633	-6.978464009898651	-1.073754552475255	-0.0258226013101096	-0.2894849996564425	-0.6152194327181915	7.461405417040172e-09	-1.589468123776958e-07	-3.923151772637666e-07	-1.312677238846284e-07	-1.089176728807972e-07	-2.467218009517235e-07	8.20825651667212e-09
1.07	-0.156469747418467	-0.06891441183969195	0.5086366890204811	1.858519548688899	-0.3017480150226912	0.1366825349642468	-0.9599091177805521	1.870209525745513	1.870209525745513	0.07375098459506717	-0.1745305255531002	0.3020995020389289	0.1104371340080281	0.07784642327140984	-0.008968397837538352	0.2679818087780018	-0.8413916019899754	-0.04950775914793287	-0.1987045038776944	0.002643435000449919	-0.6580402314518317	-0.6580402314518279	-0.09067789490694508	-6.689987296912667e-05	0.06317436584692852	-0.03309919042830162	-0.4376161868924666	-0.004093268318780575	-0.01522132877329363	-0.4495008218941937	0.06516940333634964	-0.003614921344332308	0.4739081291015927	-36.66315415408532	15.2447345725568	-11.17205775889294	18.92792417204981	-860.0726746982813	-48.88346974191237	-0.03429485626103946	0.3065210561543489	-0.2204675995248547	2.562552093942135	-7.380691679561616	-0.3063354941773933	-1.821660705021273	0.2170735910988133	-6.935976305040463	-6.935976305039885	-1.08634119844638	0.01613511212310518	-0.3474363689834315	-0.5730491855726306	5.622344763195145e-09	-1.792251125398173e-07	-4.105090020079862e-07	-1.392410878116113e-07	-1.164663547355062e-07	-2.476637581555753e-07	5.369001153591835e-09
